HIERARCHY
ROOT Hips
{
	OFFSET 0.000000 0.000000 0.000000
	CHANNELS 6 Xposition Yposition Zposition Zrotation Yrotation Xrotation 
	JOINT LHipJoint
	{
		OFFSET 0.000000 0.000000 0.000000
		CHANNELS 3 Zrotation Yrotation Xrotation
		JOINT LeftUpLeg
		{
			OFFSET 1.363060 -1.794630 0.839290
			CHANNELS 3 Zrotation Yrotation Xrotation
			JOINT LeftLeg
			{
				OFFSET 2.448110 -6.726130 0.000000
				CHANNELS 3 Zrotation Yrotation Xrotation
				JOINT LeftFoot
				{
					OFFSET 2.562200 -7.039590 0.000000
					CHANNELS 3 Zrotation Yrotation Xrotation
					JOINT LeftToeBase
					{
						OFFSET 0.157640 -0.433110 2.322550
						CHANNELS 3 Zrotation Yrotation Xrotation
						End Site
						{
							OFFSET 0.000000 0.000000 0.000000
						}
					}
				}
			}
		}
	}
	JOINT RHipJoint
	{
		OFFSET 0.000000 0.000000 0.000000
		CHANNELS 3 Zrotation Yrotation Xrotation
		JOINT RightUpLeg
		{
			OFFSET -1.305520 -1.794630 0.839290
			CHANNELS 3 Zrotation Yrotation Xrotation
			JOINT RightLeg
			{
				OFFSET -2.542530 -6.985550 0.000000
				CHANNELS 3 Zrotation Yrotation Xrotation
				JOINT RightFoot
				{
					OFFSET -2.568260 -7.056230 0.000000
					CHANNELS 3 Zrotation Yrotation Xrotation
					JOINT RightToeBase
					{
						OFFSET -0.164730 -0.452590 2.363150
						CHANNELS 3 Zrotation Yrotation Xrotation
						End Site
						{
							OFFSET 0.000000 0.000000 0.000000
						}
					}
				}
			}
		}
	}
	JOINT LowerBack
	{
		OFFSET 0.000000 0.000000 0.000000
		CHANNELS 3 Zrotation Yrotation Xrotation
		JOINT Spine
		{
			OFFSET 0.028270 2.035590 -0.193380
			CHANNELS 3 Zrotation Yrotation Xrotation
			JOINT Spine1
			{
				OFFSET 0.056720 2.048850 -0.042750
				CHANNELS 3 Zrotation Yrotation Xrotation
				JOINT Neck
				{
					OFFSET 0.000000 0.000000 0.000000
					CHANNELS 3 Zrotation Yrotation Xrotation
					JOINT Neck1
					{
						OFFSET -0.054170 1.746240 0.172020
						CHANNELS 3 Zrotation Yrotation Xrotation
						JOINT Head
						{
							OFFSET 0.104070 1.761360 -0.123970
							CHANNELS 3 Zrotation Yrotation Xrotation
							End Site
							{
								OFFSET 0.000000 0.000000 0.000000
							}
						}
					}
				}
				JOINT LeftShoulder
				{
					OFFSET 0.000000 0.000000 0.000000
					CHANNELS 3 Zrotation Yrotation Xrotation
					JOINT LeftArm
					{
						OFFSET 3.362410 1.200890 -0.311210
						CHANNELS 3 Zrotation Yrotation Xrotation
						JOINT LeftForeArm
						{
							OFFSET 4.983000 -0.000000 -0.000000
							CHANNELS 3 Zrotation Yrotation Xrotation
							JOINT LeftHand
							{
								OFFSET 3.483560 -0.000000 -0.000000
								CHANNELS 3 Zrotation Yrotation Xrotation
								JOINT LeftFingerBase
								{
									OFFSET 0.000000 0.000000 0.000000
									CHANNELS 3 Zrotation Yrotation Xrotation
									JOINT LeftHandIndex1
									{
										OFFSET 0.715260 -0.000000 -0.000000
										CHANNELS 3 Zrotation Yrotation Xrotation
										End Site
										{
											OFFSET 0.000000 0.000000 0.000000
										}
									}
								}
								JOINT LThumb
								{
									OFFSET 0.000000 0.000000 0.000000
									CHANNELS 3 Zrotation Yrotation Xrotation
									End Site
									{
										OFFSET 0.000000 0.000000 0.000000
									}
								}
							}
						}
					}
				}
				JOINT RightShoulder
				{
					OFFSET 0.000000 0.000000 0.000000
					CHANNELS 3 Zrotation Yrotation Xrotation
					JOINT RightArm
					{
						OFFSET -3.136600 1.374050 -0.404650
						CHANNELS 3 Zrotation Yrotation Xrotation
						JOINT RightForeArm
						{
							OFFSET -5.241900 -0.000000 -0.000000
							CHANNELS 3 Zrotation Yrotation Xrotation
							JOINT RightHand
							{
								OFFSET -3.444170 -0.000000 -0.000000
								CHANNELS 3 Zrotation Yrotation Xrotation
								JOINT RightFingerBase
								{
									OFFSET 0.000000 0.000000 0.000000
									CHANNELS 3 Zrotation Yrotation Xrotation
									JOINT RightHandIndex1
									{
										OFFSET -0.622530 -0.000000 -0.000000
										CHANNELS 3 Zrotation Yrotation Xrotation
										End Site
										{
											OFFSET 0.000000 0.000000 0.000000
										}
									}
								}
								JOINT RThumb
								{
									OFFSET 0.000000 0.000000 0.000000
									CHANNELS 3 Zrotation Yrotation Xrotation
									End Site
									{
										OFFSET 0.000000 0.000000 0.000000
									}
								}
							}
						}
					}
				}
			}
		}
	}
}
MOTION
Frames: 4
Frame Time: 0.008333
-32.110059 17.528718 -19.799204 -0.389029 2.490704 -3.281906 5.318909 0.172993 -0.273152 -29.181554 -16.434499 3.276781 -1.067427 9.320489 25.774021 -4.595299 20.386854 -22.227958 0.102400 2.063400 5.680900 -7.008272 0.756311 -1.852232 31.569251 18.206354 3.518807 -0.691770 -10.587254 28.320916 2.086827 -17.508266 -29.771271 -0.020700 0.929700 -2.555300 -2.831367 0.926043 2.985198 1.704748 1.599771 1.352418 -5.333731 0.257643 4.588566 4.082611 2.642183 -7.545965 9.135463 2.088653 18.503887 -0.851300 2.647200 8.117000 6.580913 4.794169 -1.280126 -95.314567 -1.448208 24.578211 11.679211 -13.082331 -1.684645 -3.513490 -3.357498 6.917706 22.280240 10.075835 6.490800 -7.125000 0.000000 0.000000 -1.871000 45.237800 -0.011000 -9.942674 -4.674757 0.010308 105.331664 -2.583767 32.481295 -12.829964 19.801575 -3.808892 0.827220 2.463560 -17.257847 -14.722828 2.528191 -0.102000 7.125000 0.000000 0.000000 8.069100 -29.569300 3.063700 
-32.095686 17.537179 -19.784020 -0.470642 2.424203 -3.066881 5.328004 0.153861 -0.283388 -29.209082 -16.718209 3.314758 -1.094993 9.287947 25.646027 -4.836087 21.098163 -22.281815 0.047700 1.409600 3.876700 -7.003030 0.761708 -1.836173 31.560653 18.324043 3.340506 -0.687371 -10.611225 28.332201 2.136343 -17.660873 -29.757247 -0.032400 1.162800 -3.196800 -2.692637 0.969812 2.740301 1.666439 1.660124 1.322834 -5.407826 0.315506 4.615094 4.186564 2.666805 -7.531317 9.126160 2.099393 18.506846 -0.855700 2.655900 8.113500 6.664449 4.930216 -1.327713 -94.815584 -0.738516 25.638348 11.604200 -13.050285 -1.533982 -4.417775 -3.280703 8.114285 26.624924 10.720314 8.469700 -7.125000 0.000000 0.000000 2.948400 46.773100 0.129100 -9.973833 -4.783369 0.019309 105.451263 -2.676032 32.191669 -12.800026 19.760085 -3.783140 0.840750 2.454496 -17.028309 -14.779135 2.540779 -0.107800 7.125000 0.000000 0.000000 8.022300 -29.550500 3.049200 
-32.083169 17.540888 -19.772429 -0.464923 2.337027 -3.045354 5.341503 0.154315 -0.283732 -29.379361 -16.938820 3.538632 -1.119822 9.241065 25.511943 -5.008242 21.622100 -22.342021 0.030600 1.129900 3.106400 -7.001359 0.766396 -1.828820 31.554715 18.447118 3.374948 -0.703130 -10.643567 28.432248 2.100255 -17.613956 -29.887340 -0.032400 1.162500 -3.196100 -2.665701 0.999763 2.722454 1.636753 1.701439 1.311222 -5.452678 0.345566 4.606817 4.250384 2.655252 -7.497006 9.087641 2.082397 18.541778 -0.869500 2.650200 8.123200 6.668843 4.967596 -1.325264 -94.347294 -0.588652 24.799921 11.523185 -13.027341 -1.561103 -3.906376 -3.451603 7.499890 24.196340 11.040324 7.719600 -7.125000 0.000000 0.000000 0.106700 46.783000 0.004700 -9.973004 -4.811386 0.022284 105.520892 -2.726030 31.966540 -12.773017 19.737182 -3.775743 0.843734 2.418757 -16.931289 -14.622220 2.735308 -0.172700 7.125000 0.000000 0.000000 8.135400 -29.314200 3.139200 
-32.071462 17.543902 -19.763852 -0.355257 2.275289 -2.967926 5.344392 0.136793 -0.296239 -29.487180 -16.846082 3.467252 -1.132975 9.223887 25.440245 -4.975531 21.502546 -22.255779 0.043700 1.348900 3.709200 -6.993867 0.767090 -1.814074 31.393116 18.597125 3.347140 -0.713440 -10.663426 28.494725 2.018417 -17.412508 -30.019503 -0.024400 1.008100 -2.771100 -2.828084 1.046481 2.683563 1.618479 1.750788 1.300435 -5.341280 0.378765 4.577939 4.263997 2.638238 -7.504526 9.030842 2.077710 18.595079 -0.891500 2.649500 8.159600 6.691036 5.084786 -1.350137 -94.000650 0.000285 25.504477 11.360261 -12.870239 -1.489500 -4.192368 -3.238174 8.960017 25.330338 10.751225 7.964400 -7.125000 0.000000 0.000000 1.438800 46.562300 0.055500 -9.965275 -4.883910 0.022364 105.557022 -2.717500 31.654872 -12.747660 19.685020 -3.758864 0.840250 2.388163 -16.837714 -14.464794 2.854403 -0.212700 7.125000 0.000000 0.000000 8.258600 -29.162600 3.217700 
